<?xml version="1.0" encoding="utf-8"?>
<!-- Generator: Adobe Illustrator 16.0.0, SVG Export Plug-In . SVG Version: 6.00 Build 0)  -->
<!DOCTYPE svg PUBLIC "-//W3C//DTD SVG 1.1//EN" "http://www.w3.org/Graphics/SVG/1.1/DTD/svg11.dtd">
<svg version="1.1" id="Layer_1" xmlns="http://www.w3.org/2000/svg" xmlns:xlink="http://www.w3.org/1999/xlink" x="0px" y="0px"
	 width="1200px" height="1200px" viewBox="0 0 1200 1200" enable-background="new 0 0 1200 1200" xml:space="preserve">
<g>
	<path fill="#2D2F31" d="M1127.496,885.723l-26.902-0.178l-38.273-0.254c5.114-8.2,8.075-17.871,8.075-28.222
		c0-29.487-23.971-53.456-53.46-53.456c-29.486,0-53.452,23.969-53.452,53.456c0,10.074,2.806,19.541,7.692,27.589l-38.269-0.254
		l-69.001-0.456l34.93-115.242h206.461L1127.496,885.723z"/>
	<g>
		<g>
			<g>
				<g>
					<path d="M441.842,778.049c0,0.684,0,1.138-0.024,1.316l2.507,0.304l1.038,2.277c0.101-0.053,0.202-0.076,0.276-0.13
						c0.052-0.024,0.102-0.05,0.153-0.072c0.709-0.431,0.986-1.266,1.088-6.024C445.184,776.426,443.488,777.213,441.842,778.049z
						 M401.599,895.085c0.836,1.723,1.721,3.421,2.657,5.062h1.469v-5.062H401.599z"/>
					<path d="M567.867,839.175c-8.301-40.193-43.939-70.466-86.514-70.466c-12.226,0-23.867,2.48-34.474,7.014
						c-0.102,4.758-0.379,5.594-1.088,6.023c-0.052,0.026-0.102,0.051-0.153,0.073c-0.074,0.053-0.176,0.076-0.276,0.13
						l-1.038-2.278l-2.507-0.304c0.027-0.176,0.027-0.633,0.027-1.316c-28.957,14.525-48.853,44.497-48.853,79.022
						c0,13.591,3.09,26.5,8.606,38.017h4.126v5.062h-1.469c15.11,27.01,44.016,45.286,77.098,45.286
						c43.612,0,79.934-31.768,87.072-73.403c0.835-4.86,1.266-9.871,1.266-14.959C569.691,850.944,569.059,844.946,567.867,839.175z
						 M481.354,910.528c-29.488,0-53.482-23.972-53.482-53.459s23.994-53.456,53.482-53.456c29.462,0,53.458,23.969,53.458,53.456
						S510.815,910.528,481.354,910.528z"/>
				</g>
				<path fill="#545658" d="M481.354,803.613c-29.488,0-53.482,23.969-53.482,53.456s23.994,53.459,53.482,53.459
					c29.462,0,53.458-23.972,53.458-53.459S510.815,803.613,481.354,803.613z M481.354,866.913c-5.442,0-9.845-4.402-9.845-9.846
					c0-5.417,4.402-9.847,9.845-9.847c5.416,0,9.846,4.43,9.846,9.847C491.199,862.511,486.77,866.913,481.354,866.913z"/>
				<g>
					<path fill="#BABABA" d="M491.199,857.069c0,5.441-4.43,9.847-9.846,9.847c-5.442,0-9.845-4.401-9.845-9.847
						c0-5.416,4.402-9.845,9.845-9.845C486.77,847.225,491.199,851.653,491.199,857.069z"/>
				</g>
			</g>
			<g>
				<g>
					<path d="M1031.823,769.975c-4.835-0.836-9.798-1.266-14.888-1.266c-5.087,0-10.045,0.43-14.88,1.266
						c-6.254,1.037-12.25,2.759-17.97,5.063h18.271c4.735-0.836,9.62-1.266,14.578-1.266c4.966,0,9.851,0.43,14.581,1.266h18.276
						C1044.073,772.733,1038.072,771.012,1031.823,769.975z"/>
					<path d="M1049.793,775.037h-65.705c-32.504,13.06-55.512,44.901-55.512,82.032c0,9.543,1.522,18.73,4.331,27.337
						c11.543,35.384,44.853,61.026,84.028,61.026c38.756,0,71.786-25.084,83.658-59.888c3.033-8.935,4.703-18.527,4.703-28.476
						C1105.301,819.938,1082.293,788.097,1049.793,775.037z M1016.938,910.528c-19.389,0-36.395-10.382-45.763-25.87
						c-4.885-8.051-7.692-17.515-7.692-27.589c0-29.487,23.969-53.456,53.455-53.456c29.488,0,53.46,23.969,53.46,53.456
						c0,10.354-2.961,20.021-8.075,28.222C1052.883,900.451,1036.075,910.528,1016.938,910.528z"/>
				</g>
				<g>
					<path fill="#545658" d="M1016.938,803.613c-29.486,0-53.455,23.969-53.455,53.456c0,10.074,2.808,19.541,7.692,27.589
						c9.368,15.488,26.374,25.87,45.763,25.87c19.139,0,35.944-10.075,45.385-25.237c5.114-8.2,8.075-17.871,8.075-28.222
						C1070.398,827.58,1046.427,803.613,1016.938,803.613z M1016.938,866.913c-5.413,0-9.843-4.402-9.843-9.846
						c0-5.417,4.43-9.847,9.843-9.847c5.421,0,9.85,4.43,9.85,9.847C1026.786,862.511,1022.356,866.913,1016.938,866.913z"/>
				</g>
				<g>
					<path fill="#BABABA" d="M1026.786,857.069c0,5.441-4.43,9.847-9.851,9.847c-5.413,0-9.843-4.401-9.843-9.847
						c0-5.416,4.43-9.845,9.843-9.845C1022.356,847.225,1026.786,851.653,1026.786,857.069z"/>
				</g>
			</g>
			<g>
				<path d="M1031.823,769.975h-29.768c-6.254,1.037-12.25,2.759-17.97,5.063h65.705
					C1044.073,772.733,1038.072,771.012,1031.823,769.975z"/>
				<path fill="#FFD10C" d="M1127.496,672.703v213.02l-39.938-110.686h-37.765c-5.72-2.304-11.721-4.025-17.97-5.063
					c-4.835-0.836-9.798-1.266-14.885-1.266c-5.09,0-10.048,0.43-14.883,1.266c-6.254,1.037-12.25,2.759-17.97,5.063h-34.2
					l-41.257,41.256v67.657H649.9l-5.037-11.922h-76.436c0.836-4.859,1.266-9.871,1.266-14.959c0-6.125-0.633-12.123-1.821-17.895
					v-82.667L447.06,725.53c0.025-4.859,0.025-9.998,0.025-15.363v-11.112l66.367,9.666l5.161,0.734l12.023,1.772l5.139,0.733
					l46.977,6.834l3.419,0.507l0.961,2.253l7.492,17.868h341.499V615.224h133.897L1127.496,672.703z"/>
				<path fill="#FFD10C" d="M569.691,857.069c0,5.088-0.431,10.1-1.266,14.959h-0.559v-32.854
					C569.059,844.946,569.691,850.944,569.691,857.069z"/>
			</g>
			<g>
				<polygon points="311.237,879.597 307.465,882.988 303.77,878.888 310.604,878.888 				"/>
				<path d="M405.725,895.085v5.062h-1.469c-0.937-1.641-1.821-3.339-2.657-5.062H405.725z"/>
				<path d="M446.88,775.72c-0.102,4.759-0.379,5.594-1.088,6.024c-0.052,0.024-0.102,0.051-0.153,0.072
					c-0.074,0.054-0.176,0.077-0.276,0.13l-1.038-2.277l-2.507-0.304c0.027-0.176,0.027-0.633,0.027-1.316
					C443.488,777.213,445.184,776.426,446.88,775.72z"/>
			</g>
			<g>
				<polygon points="529.673,674.171 527.369,678.674 525.345,677.639 527.166,672.88 				"/>
				<polygon points="538.912,648.759 536.658,653.289 534.962,652.454 536.786,647.695 				"/>
				<rect x="709.283" y="283.366" width="5.063" height="2.531"/>
				<rect x="732.948" y="283.366" width="5.063" height="2.531"/>
				
					<rect x="890.174" y="311.723" transform="matrix(-0.7064 0.7078 -0.7078 -0.7064 1742.575 -94.3425)" width="1.36" height="5.046"/>
				
					<rect x="906.87" y="328.404" transform="matrix(-0.7078 0.7064 -0.7064 -0.7078 1783.7012 -75.9183)" width="1.362" height="5.047"/>
			</g>
			<g>
				<polygon points="941.183,363.577 941.183,615.222 936.12,615.222 936.12,641.95 917.34,641.95 917.34,373.601 855.861,312.119 
					689.717,312.119 622.74,486.059 620.843,490.969 616.72,501.697 614.92,506.409 587.382,577.938 584.371,577.938 584.371,583 
					585.434,583 535.772,711.961 530.634,711.228 518.611,709.455 513.447,708.719 525.345,677.639 527.369,678.674 
					529.673,674.171 527.166,672.88 534.962,652.454 536.658,653.289 538.912,648.759 536.786,647.695 676.122,283.366 
					709.283,283.366 709.283,285.897 714.346,285.897 714.346,283.366 732.948,283.366 732.948,285.897 738.011,285.897 
					738.011,283.366 860.997,283.366 889.547,311.942 888.588,312.904 892.157,316.474 893.116,315.511 906.28,328.673 
					905.316,329.635 908.886,333.204 909.85,332.241 				"/>
				<polygon points="587.382,577.938 585.434,583 584.371,583 584.371,577.938 				"/>
			</g>
			<g>
				<polygon fill="#2D2F31" points="936.12,641.95 936.12,739.421 654.761,739.421 692.119,641.95 				"/>
			</g>
			<g>
				<path fill="#FFD10C" d="M878.992,493.472L848.392,631.52c-0.935,4.227-3.797,7.998-7.49,10.428H717.885
					c-3.418-2.557-5.615-6.656-5.615-11.235v-6.657c0-7.771,6.327-14.123,14.097-14.123h69.86c5.237,0,10.807-4.255,12.198-9.29
					l29.513-108.509c1.951-7.189,9.616-13.061,17.061-13.061h12.453c3.847,0,7.213,1.519,9.413,4.274
					C879.071,486.108,879.827,489.703,878.992,493.472z"/>
			</g>
			<g>
				<polygon points="587.382,577.938 585.434,583 584.371,583 584.371,577.938 				"/>
			</g>
			<g>
				<polygon fill="#545658" points="642.737,577.938 587.13,721.555 586.168,719.302 582.752,718.795 535.772,711.961 585.434,583 
					587.382,577.938 				"/>
				<path fill="#2D2F31" d="M646.184,527.897l-13.922,50.04h-17.871l14.075-62.442c1.413,0.989,2.906,2,4.479,3.138l8.834,6.151
					C643.217,525.797,644.686,526.835,646.184,527.897z"/>
				<path fill="#545658" d="M719.482,557.714h-31.486l-0.657-0.481c-11.998-8.656-27.438-19.669-41.155-29.335
					c-1.498-1.063-2.967-2.101-4.405-3.113l-8.834-6.151c-1.572-1.138-3.065-2.151-4.479-3.138
					c-6.076-4.174-10.887-7.416-13.546-9.086l1.8-4.709l4.123-10.729l1.897-4.91L719.482,557.714z"/>
			</g>
			<g>
				<path fill="#545658" d="M464.979,339.201v350.384h-17.896c0.025-11.744,0.025-24.272,0.025-37.308
					c0-29.716-0.025-62.215-0.05-94.715c-0.077-99.321-0.178-198.592-0.203-218.361H464.979z"/>
				<path fill="#2D2F31" d="M567.867,756.506v82.667c-8.301-40.194-43.939-70.467-86.514-70.467c-12.226,0-23.867,2.48-34.474,7.014
					c0.101-3.091,0.101-7.849,0.126-15.215c0.024-9.033,0.052-20.933,0.052-34.978L567.867,756.506z"/>
				<path d="M447.107,652.277c0,13.035,0,25.565-0.025,37.308v20.579c0,5.365,0,10.504-0.024,15.363
					c0,14.048-0.027,25.944-0.052,34.978c-0.025,7.366-0.025,12.124-0.126,15.215c-1.696,0.706-3.392,1.493-5.038,2.329
					c-28.954,14.525-48.85,44.497-48.85,79.021c0,13.593,3.087,26.502,8.606,38.018c0.836,1.726,1.721,3.421,2.657,5.063H84.649
					v-16.322h227.245v-4.937h26.679v-45.206h16.68V592.899h44.116V333.13h47.485v2.531c0,0,0,1.215,0,3.543
					c0.025,19.77,0.126,119.037,0.203,218.361C447.082,590.063,447.107,622.559,447.107,652.277z"/>
			</g>
			<g>
				<polygon fill="#2D2F31" points="536.786,647.695 534.962,652.454 527.166,672.88 525.345,677.639 464.979,646.86 
					464.979,612.133 				"/>
				<polygon points="538.912,648.759 536.658,653.289 534.962,652.454 536.786,647.695 				"/>
			</g>
			<g>
				<polygon points="529.673,674.171 527.369,678.674 525.345,677.639 527.166,672.88 				"/>
			</g>
		</g>
		<g>
			<path fill="#F2801F" d="M738.011,268.66v14.706h-28.729V268.66c0-7.771,6.327-14.098,14.099-14.098h0.504
				C731.658,254.563,738.011,260.89,738.011,268.66z"/>
			<rect x="709.283" y="283.366" width="5.063" height="2.531"/>
			<rect x="732.948" y="283.366" width="5.063" height="2.531"/>
		</g>
		<g>
			
				<rect x="890.174" y="311.723" transform="matrix(-0.7064 0.7078 -0.7078 -0.7064 1742.575 -94.3425)" width="1.36" height="5.046"/>
			<path fill="#F2801F" d="M918.709,317.283c0.351,3.594-0.762,6.859-3.09,9.188l-5.77,5.771l-16.733-16.73l-3.569-3.568
				l5.773-5.771c2.329-2.354,5.592-3.439,9.186-3.087c3.419,0.328,6.709,1.95,9.316,4.53l0.355,0.354
				C916.756,310.55,918.378,313.863,918.709,317.283z"/>
			
				<rect x="906.87" y="328.404" transform="matrix(-0.7078 0.7064 -0.7064 -0.7078 1783.7012 -75.9183)" width="1.362" height="5.047"/>
		</g>
		<g>
			<path fill="#F2801F" d="M1141.418,753.544v0.481c0,7.923-4.15,14.124-9.492,14.124h-4.43v-28.731h4.43
				C1137.27,739.421,1141.418,745.625,1141.418,753.544z"/>
			<path fill="#F2801F" d="M1150,720.313v0.507c0,7.795-6.174,14.122-13.793,14.122h-8.707v-28.729h8.707
				C1143.826,706.214,1150,712.542,1150,720.313z"/>
		</g>
		<g>
			<g>
				<path d="M310.604,878.888l-3.772-4.2v4.074h-3.163l0.101,0.126l3.695,4.101l3.772-3.392L310.604,878.888z M311.237,597.276
					l-3.772-3.396l-3.796,4.229h3.163v4.073L311.237,597.276z M54.405,593.881l-3.748,3.396l4.405,4.907v-4.073h3.139
					L54.405,593.881z M55.063,878.762v-4.074l-4.405,4.91l3.748,3.391l3.796-4.227H55.063z"/>
				<path fill="#CA8E5A" d="M50,593.048v290.776h261.895V593.048H50z M311.237,879.597l-3.772,3.392l-3.695-4.101l-0.101-0.126
					L180.937,742.233L58.201,878.762l-3.796,4.227l-3.748-3.391l4.405-4.91l122.48-136.251l-122.48-136.25l-4.405-4.908l3.748-3.395
					l3.796,4.229L180.937,734.64l122.732-136.527l3.796-4.229l3.772,3.395l-4.405,4.908l-122.479,136.25l122.479,136.251l3.772,4.2
					L311.237,879.597z"/>
			</g>
			<g>
				<polygon fill="#6E4D2C" points="311.237,879.597 307.465,882.988 303.77,878.888 303.669,878.762 180.937,742.233 
					177.543,738.437 55.063,602.187 50.657,597.276 54.405,593.881 58.201,598.11 180.937,734.64 184.353,738.437 306.832,874.688 
					310.604,878.888 				"/>
			</g>
			<g>
				<polygon fill="#6E4D2C" points="311.237,597.276 306.832,602.187 184.353,738.437 180.937,742.233 58.201,878.762 
					54.405,882.988 50.657,879.597 55.063,874.688 177.543,738.437 180.937,734.64 303.669,598.11 307.465,593.881 				"/>
			</g>
		</g>
	</g>
</g>
</svg>
